<?xml version="1.0" standalone="no"?>
<svg xmlns="http://www.w3.org/2000/svg" viewBox="0 0 100.948 29" width="100.948" height="29"><g fill="#ff8686" color="#ff8686" transform="translate(0, 0) scale(0.5686275)"><svg width="44.0" height="51.0" x="0.0" y="0.0" viewBox="0 0 44 51"><path fill="currentColor" fill-rule="evenodd" d="M22 0L0 12.571v25.143l22 12.572 21.994-12.568.006-.01V12.571L22 0zM6.354 13.778L22 4.84l15.645 8.938-4.231 2.419L22 9.678l-11.411 6.52-4.235-2.42zm17.764 10.158v-8.21L31.3 19.83v8.208l-7.182-4.101zm-11.416-4.107l7.18-4.102v8.207l-7.18 4.103v-8.208zm11.416 19.57l11.415-6.522V19.826l4.233-2.42v17.89l-15.648 8.941v-4.838zM4.233 35.296v-17.89l4.233 2.42v13.049l11.416 6.524v4.838l-15.649-8.94zm10.583-3.63l7.182-4.104 7.183 4.104L22 35.768l-7.184-4.102z"></path></svg></g><line x1="37.02" y1="1" x2="37.02" y2="28" stroke="#fe0b01" stroke-linecap="round"></line><path fill="#fe0b01" fill-rule="nonzero" d="M0 16.85L0 16.85L2.98 0.36Q3 0.26 3.10 0.26L3.10 0.26L6.58 0.26Q6.67 0.26 6.70 0.36L6.70 0.36L9.55 16.85Q9.58 16.97 9.46 16.97L9.46 16.97L6.79 16.97Q6.70 16.97 6.67 16.85L6.67 16.85L6.41 15.10L3.14 15.10L2.88 16.85Q2.86 16.97 2.76 16.97L2.76 16.97L0.10 16.97Q0 16.97 0 16.85ZM4.70 5.78L3.62 12.53L5.93 12.53L4.94 5.78L4.80 4.90L4.70 5.78ZM15.48 16.94L11.18 16.97Q11.06 16.97 11.06 16.85L11.06 16.85L11.11 0.36Q11.11 0.26 11.21 0.26L11.21 0.26L15.70 0.24Q17.02 0.22 18.11 0.86Q19.20 1.51 19.85 2.60Q20.50 3.70 20.50 5.02L20.50 5.02L20.50 11.90Q20.50 13.30 19.82 14.44Q19.15 15.58 18.02 16.25Q16.90 16.92 15.48 16.94L15.48 16.94ZM14.02 3.14L13.99 14.02L15.48 14.02Q16.37 14.02 16.98 13.39Q17.59 12.77 17.59 11.90L17.59 11.90L17.59 4.99Q17.59 4.22 17.03 3.66Q16.46 3.10 15.70 3.12L15.70 3.12L14.02 3.14ZM26.74 17.21L26.74 17.21Q25.46 17.21 24.38 16.55Q23.30 15.89 22.67 14.78Q22.03 13.68 22.03 12.36L22.03 12.36L22.08 0.36Q22.08 0.26 22.18 0.26L22.18 0.26L24.86 0.26Q24.96 0.26 24.96 0.36L24.96 0.36L24.96 12.36Q24.96 13.18 25.48 13.74Q25.99 14.30 26.74 14.30L26.74 14.30Q27.50 14.30 28.02 13.74Q28.54 13.18 28.54 12.36L28.54 12.36L28.54 0.36Q28.54 0.26 28.63 0.26L28.63 0.26L31.32 0.26Q31.42 0.26 31.42 0.36L31.42 0.36L31.46 12.36Q31.46 13.70 30.83 14.81Q30.19 15.91 29.12 16.56Q28.06 17.21 26.74 17.21ZM36.17 16.97L33.46 16.97Q33.36 16.97 33.36 16.85L33.36 16.85L33.41 0.36Q33.41 0.26 33.50 0.26L33.50 0.26L38.35 0.26Q39.65 0.26 40.74 0.90Q41.83 1.54 42.48 2.60Q43.13 3.67 43.13 5.02L43.13 5.02Q43.13 5.90 42.86 6.61Q42.60 7.32 42.24 7.81Q41.88 8.30 41.59 8.54L41.59 8.54Q42.89 9.98 42.89 11.93L42.89 11.93L42.91 16.85Q42.91 16.97 42.79 16.97L42.79 16.97L40.08 16.97Q39.98 16.97 39.98 16.90L39.98 16.90L39.98 11.93Q39.98 11.06 39.37 10.43Q38.76 9.79 37.87 9.79L37.87 9.79L36.29 9.79L36.26 16.85Q36.26 16.97 36.17 16.97L36.17 16.97ZM36.29 3.14L36.29 6.91L38.35 6.91Q39.10 6.91 39.67 6.36Q40.25 5.81 40.25 5.02L40.25 5.02Q40.25 4.25 39.68 3.70Q39.12 3.14 38.35 3.14L38.35 3.14L36.29 3.14ZM49.22 17.21L49.22 17.21Q47.90 17.21 46.84 16.55Q45.77 15.89 45.14 14.78Q44.52 13.68 44.52 12.31L44.52 12.31L44.54 4.82Q44.54 3.50 45.16 2.41Q45.77 1.32 46.84 0.66Q47.90 0 49.22 0L49.22 0Q50.54 0 51.60 0.65Q52.66 1.30 53.28 2.39Q53.90 3.48 53.90 4.82L53.90 4.82L53.90 5.93Q53.90 6.02 53.81 6.02L53.81 6.02L51.12 6.02Q51.02 6.02 51.02 5.93L51.02 5.93L51.02 4.82Q51.02 4.03 50.51 3.46Q49.99 2.88 49.22 2.88L49.22 2.88Q48.36 2.88 47.90 3.47Q47.45 4.06 47.45 4.82L47.45 4.82L47.45 12.31Q47.45 13.20 47.96 13.75Q48.48 14.30 49.22 14.30L49.22 14.30Q49.99 14.30 50.51 13.69Q51.02 13.08 51.02 12.31L51.02 12.31L51.02 11.21Q51.02 11.11 51.12 11.11L51.12 11.11L53.83 11.11Q53.93 11.11 53.93 11.21L53.93 11.21L53.93 12.31Q53.93 13.68 53.29 14.78Q52.66 15.89 51.60 16.55Q50.54 17.21 49.22 17.21Z" transform="translate(47.02, 6.016)"></path></svg>